/* XPM */
static char * D:\source\MGC\share\pixmaps\massgrid16_xpm[] = {
"16 16 155 2",
"  	c None",
". 	c #FCFC75",
"+ 	c #E9D24E",
"@ 	c #E5DA62",
"# 	c #EBE564",
"$ 	c #EEF067",
"% 	c #FFFFBE",
"& 	c #DBC856",
"* 	c #ECCA35",
"= 	c #F9D634",
"- 	c #DEBB2E",
"; 	c #E3BD36",
"> 	c #E2C247",
", 	c #FCF453",
"' 	c #E6E242",
") 	c #E8ECBA",
"! 	c #DCBB62",
"~ 	c #CD9E03",
"{ 	c #DFC031",
"] 	c #FFFF6C",
"^ 	c #FFFD59",
"/ 	c #FFFE59",
"( 	c #E5C333",
"_ 	c #E4B122",
": 	c #FFFF4B",
"< 	c #ABB43E",
"[ 	c #E1E779",
"} 	c #DAB63B",
"| 	c #DCB805",
"1 	c #DBC734",
"2 	c #C3AF44",
"3 	c #D9CC51",
"4 	c #FCF857",
"5 	c #F5EC46",
"6 	c #FFFF4A",
"7 	c #EFD22C",
"8 	c #DFB223",
"9 	c #ECEF47",
"0 	c #F8DE45",
"a 	c #E0B608",
"b 	c #FFEB26",
"c 	c #E1C33F",
"d 	c #EAE05B",
"e 	c #E5B932",
"f 	c #BDA12C",
"g 	c #AAA133",
"h 	c #D6CB3C",
"i 	c #DDC539",
"j 	c #E9B311",
"k 	c #FFFF43",
"l 	c #8F831D",
"m 	c #D2D14E",
"n 	c #F4CE26",
"o 	c #F9D619",
"p 	c #F3D22D",
"q 	c #F6EF61",
"r 	c #E6C62E",
"s 	c #F5D53E",
"t 	c #DDC132",
"u 	c #E3CF49",
"v 	c #EDE35C",
"w 	c #C39523",
"x 	c #E8B90E",
"y 	c #FFFF3F",
"z 	c #C3AC23",
"A 	c #F1E542",
"B 	c #FCD628",
"C 	c #F2C810",
"D 	c #EEDB44",
"E 	c #FFFA5C",
"F 	c #FFF138",
"G 	c #DEBB22",
"H 	c #E9C622",
"I 	c #FCEC3F",
"J 	c #CD991F",
"K 	c #E3B10B",
"L 	c #F8D51B",
"M 	c #FFF43F",
"N 	c #D1A720",
"O 	c #F7EB46",
"P 	c #F5CB1E",
"Q 	c #E5C219",
"R 	c #FAEF57",
"S 	c #FFE43B",
"T 	c #FDDA31",
"U 	c #EBC625",
"V 	c #FFE73C",
"W 	c #F4E13F",
"X 	c #E6BA15",
"Y 	c #FFE11B",
"Z 	c #F2CF1E",
"` 	c #FFF346",
" .	c #BF830D",
"..	c #F2ED49",
"+.	c #F3D126",
"@.	c #E8CF32",
"#.	c #FFEB47",
"$.	c #FFDB30",
"%.	c #FFE138",
"&.	c #FFE93D",
"*.	c #FFF24B",
"=.	c #E6BC2E",
"-.	c #F6CF16",
";.	c #ECC104",
">.	c #F9F24D",
",.	c #F8D23A",
"'.	c #9C5800",
").	c #9EA630",
"!.	c #FFFF47",
"~.	c #FDD93A",
"{.	c #FFD930",
"].	c #FFDD36",
"^.	c #FFDE38",
"/.	c #FFE93E",
"(.	c #F2D641",
"_.	c #E2AD0C",
":.	c #E8BB00",
"<.	c #FAE759",
"[.	c #EBE874",
"}.	c #DF9206",
"|.	c #ECEF3D",
"1.	c #FFF638",
"2.	c #FFD832",
"3.	c #FFDC36",
"4.	c #FFDC38",
"5.	c #FFF047",
"6.	c #E4B81F",
"7.	c #DEAC05",
"8.	c #FFF676",
"9.	c #E6E894",
"0.	c #CF9518",
"a.	c #956101",
"b.	c #FFF739",
"c.	c #FFF839",
"d.	c #FFE93A",
"e.	c #FFEC40",
"f.	c #FFF145",
"g.	c #FAE83F",
"h.	c #F6ED62",
"i.	c #F5E66D",
"j.	c #EBBC1E",
"k.	c #9C7305",
"l.	c #DFB228",
"m.	c #FFD72E",
"n.	c #FFDB32",
"o.	c #FAD230",
"p.	c #F4CE32",
"q.	c #FFD433",
"r.	c #E2B71B",
"s.	c #816A14",
"t.	c #64460E",
"u.	c #906711",
"v.	c #A4750F",
"w.	c #946807",
"x.	c #775E11",
"                                ",
"            . + @ # $           ",
"        % & * = - ; > , '       ",
"      ) ! ~ { ] ^ / ( _ : <     ",
"    [ } | 1 2 3 4 5 6 7 8 9     ",
"    0 a b c d e f g h i j k l   ",
"  m n o p q r s t u v w x y z   ",
"  A B C D E F G H I J K L M N   ",
"  O P Q R S T U V W X Y Z `  .  ",
"  ..+.@.#.$.%.&.*.=.-.;.>.,.'.  ",
"  ).!.~.{.].^./.(._.:.<.[.}.    ",
"    |.1.2.3.4.5.6.7.8.9.0.a.    ",
"      b.c.d.e.f.g.h.i.j.k.      ",
"        l.m.n.o.p.q.r.s.        ",
"          t.u.v.w.x.            ",
"                                "};
