/* XPM */
static char * D:\source\MGD\share\pixmaps\massgrid32_xpm[] = {
"32 32 547 2",
"  	c None",
". 	c #E3DD70",
"+ 	c #ECD447",
"@ 	c #E8E767",
"# 	c #D6D561",
"$ 	c #F0E962",
"% 	c #CDCA53",
"& 	c #F5F46E",
"* 	c #FBF96B",
"= 	c #FFFF7B",
"- 	c #F6CC2F",
"; 	c #F6D63D",
"> 	c #FFFF8A",
", 	c #FFFF7C",
"' 	c #FFFF73",
") 	c #FFFF75",
"! 	c #FFFF6A",
"~ 	c #FFF95F",
"{ 	c #E7E558",
"] 	c #E4E38C",
"^ 	c #FDFD77",
"/ 	c #F2F072",
"( 	c #F4E14E",
"_ 	c #FFD528",
": 	c #E2CF58",
"< 	c #B38219",
"[ 	c #D29E17",
"} 	c #DDAF22",
"| 	c #D5B340",
"1 	c #DDC04B",
"2 	c #FFFF60",
"3 	c #FFFF5E",
"4 	c #FFFB51",
"5 	c #DEDC4B",
"6 	c #D3CD45",
"7 	c #FFFFB4",
"8 	c #FFFF98",
"9 	c #FBF374",
"0 	c #B88F31",
"a 	c #A47B25",
"b 	c #F0CD35",
"c 	c #FFD438",
"d 	c #F3E44A",
"e 	c #D8A400",
"f 	c #E2BD19",
"g 	c #E8C932",
"h 	c #D79B19",
"i 	c #CB9C22",
"j 	c #CFAD3C",
"k 	c #DCCA48",
"l 	c #FFFB53",
"m 	c #FFFA3D",
"n 	c #FFE73D",
"o 	c #FFFFC9",
"p 	c #FFFFB6",
"q 	c #D4BC5E",
"r 	c #B47304",
"s 	c #C48400",
"t 	c #F1CA11",
"u 	c #FEEA47",
"v 	c #F9DF48",
"w 	c #FFFB66",
"x 	c #FFFD62",
"y 	c #FFFF6F",
"z 	c #FFFC6C",
"A 	c #FFFC58",
"B 	c #FFFF63",
"C 	c #E7B52D",
"D 	c #AC6302",
"E 	c #E2D540",
"F 	c #FFD832",
"G 	c #FFFE47",
"H 	c #BDC33D",
"I 	c #FFFFA7",
"J 	c #FFFFA9",
"K 	c #AF894D",
"L 	c #AC6900",
"M 	c #F6DA2E",
"N 	c #FFFF48",
"O 	c #FCE93B",
"P 	c #FFFF7E",
"Q 	c #FFF559",
"R 	c #FFF65F",
"S 	c #FFF258",
"T 	c #FEF154",
"U 	c #FFF453",
"V 	c #FFFE55",
"W 	c #ECCC33",
"X 	c #ECCB20",
"Y 	c #FFC826",
"Z 	c #FFDD3F",
"` 	c #FFFF46",
" .	c #FFFF50",
"..	c #FFFF7D",
"+.	c #FFFF82",
"@.	c #A97D32",
"#.	c #B87E00",
"$.	c #FFF520",
"%.	c #FBF754",
"&.	c #9B7A27",
"*.	c #A37B24",
"=.	c #B69733",
"-.	c #E0CF4D",
";.	c #FFF64F",
">.	c #FFEE46",
",.	c #FFEF44",
"'.	c #FFED43",
").	c #FFE940",
"!.	c #FFFF4C",
"~.	c #FFE83E",
"{.	c #D2B632",
"].	c #D6BD2D",
"^.	c #DBD941",
"/.	c #F4F66A",
"(.	c #FFFF68",
"_.	c #B8902F",
":.	c #BA8200",
"<.	c #FFF92A",
"[.	c #FFF337",
"}.	c #C4A226",
"|.	c #A87C1A",
"1.	c #F0DF48",
"2.	c #C3A529",
"3.	c #A67A14",
"4.	c #CFBA40",
"5.	c #FFFF67",
"6.	c #FFF853",
"7.	c #FFFF54",
"8.	c #FFFF51",
"9.	c #FFFC3F",
"0.	c #FFF641",
"a.	c #D0A527",
"b.	c #BF7800",
"c.	c #D5B220",
"d.	c #FFF845",
"e.	c #C3C960",
"f.	c #FFFF62",
"g.	c #DCC243",
"h.	c #BA7E01",
"i.	c #FFF028",
"j.	c #FFDD2A",
"k.	c #F9DA2C",
"l.	c #DFB82C",
"m.	c #F6E955",
"n.	c #FFFF6D",
"o.	c #DFC23A",
"p.	c #BB7A12",
"q.	c #D5D34A",
"r.	c #877A27",
"s.	c #A7881F",
"t.	c #BCA32A",
"u.	c #E7DF47",
"v.	c #F2DF43",
"w.	c #CC8F0A",
"x.	c #F9D919",
"y.	c #EBC01C",
"z.	c #F3D93B",
"A.	c #FFFF44",
"B.	c #C2B429",
"C.	c #FFFE5E",
"D.	c #FFFF55",
"E.	c #C38E1A",
"F.	c #EFC816",
"G.	c #FFE831",
"H.	c #F9D628",
"I.	c #F0C816",
"J.	c #F1DE48",
"K.	c #DAC045",
"L.	c #E6D149",
"M.	c #F7F262",
"N.	c #EFD74C",
"O.	c #D78505",
"P.	c #FACE26",
"Q.	c #8A8025",
"R.	c #977C19",
"S.	c #DDC338",
"T.	c #BDA126",
"U.	c #A47C13",
"V.	c #CABA44",
"W.	c #FFFF5C",
"X.	c #FDDC21",
"Y.	c #E9BD16",
"Z.	c #F5D834",
"`.	c #FFFF47",
" +	c #FFED30",
".+	c #FFFF58",
"++	c #E0C23A",
"@+	c #D7A310",
"#+	c #FFEC2B",
"$+	c #FAD82A",
"%+	c #F3CC1B",
"&+	c #EDCB24",
"*+	c #FEFE6F",
"=+	c #E6D146",
"-+	c #DAAF23",
";+	c #C28F15",
">+	c #D09A28",
",+	c #FCE650",
"'+	c #FCFF57",
")+	c #C6A93B",
"!+	c #F8F060",
"~+	c #FFFF57",
"{+	c #FFFF61",
"]+	c #E9DC51",
"^+	c #9A4F02",
"/+	c #E8B313",
"(+	c #F7D71E",
"_+	c #F1D12E",
":+	c #FFFB47",
"<+	c #FFEA30",
"[+	c #855506",
"}+	c #D6D44C",
"|+	c #FFFF4D",
"1+	c #DCB42A",
"2+	c #EDC119",
"3+	c #FEE12C",
"4+	c #F9D829",
"5+	c #EBBF0E",
"6+	c #EFD83D",
"7+	c #FFFD6E",
"8+	c #FFFA57",
"9+	c #FFF64A",
"0+	c #FCD31E",
"a+	c #FFF24B",
"b+	c #EBE465",
"c+	c #DEB31B",
"d+	c #FBE036",
"e+	c #D9BA46",
"f+	c #EDDC56",
"g+	c #FEF661",
"h+	c #FCF663",
"i+	c #CF941C",
"j+	c #BA7C00",
"k+	c #E5C017",
"l+	c #F4CD17",
"m+	c #EFCE2B",
"n+	c #FDDC2F",
"o+	c #A76B06",
"p+	c #FDF148",
"q+	c #FFF244",
"r+	c #E2BB28",
"s+	c #F7D320",
"t+	c #F8D829",
"u+	c #F4D020",
"v+	c #E6BF15",
"w+	c #F8EF5D",
"x+	c #FFF45E",
"y+	c #FEE43F",
"z+	c #FDE039",
"A+	c #FFF046",
"B+	c #FFF543",
"C+	c #E0AA17",
"D+	c #E1B81D",
"E+	c #FFE632",
"F+	c #E1B518",
"G+	c #D8A71E",
"H+	c #DBC032",
"I+	c #A76910",
"J+	c #C87F01",
"K+	c #FFEF20",
"L+	c #FCDC23",
"M+	c #E8BE13",
"N+	c #F3D630",
"O+	c #FFFC48",
"P+	c #EDCE2C",
"Q+	c #B27106",
"R+	c #FFF345",
"S+	c #FFE541",
"T+	c #E7C42B",
"U+	c #F6D31F",
"V+	c #F6D628",
"W+	c #E8BD0D",
"X+	c #EAD031",
"Y+	c #FFFC6B",
"Z+	c #FFE84A",
"`+	c #FFE43D",
" @	c #FFDE30",
".@	c #FEDF37",
"+@	c #DFC02B",
"@@	c #D2AC18",
"#@	c #E9C425",
"$@	c #FFE93E",
"%@	c #FFF242",
"&@	c #FFF73C",
"*@	c #EBC725",
"=@	c #C27C00",
"-@	c #EECC16",
";@	c #FCDB23",
">@	c #FAD520",
",@	c #E8C117",
"'@	c #F7DC37",
")@	c #FFFD49",
"!@	c #E0B722",
"~@	c #BA7707",
"{@	c #FFEF42",
"]@	c #FFE745",
"^@	c #E9C92D",
"/@	c #F1CC1B",
"(@	c #F1CD20",
"_@	c #E2B90F",
":@	c #F6EB54",
"<@	c #FFF158",
"[@	c #FFE440",
"}@	c #FFE138",
"|@	c #FFE238",
"1@	c #FFDD30",
"2@	c #E0B418",
"3@	c #DAAC17",
"4@	c #F9CE2A",
"5@	c #FFE53B",
"6@	c #FFE139",
"7@	c #FFF547",
"8@	c #D39D1C",
"9@	c #EABD12",
"0@	c #FEE326",
"a@	c #FBD823",
"b@	c #F1C916",
"c@	c #E8C51E",
"d@	c #FFE842",
"e@	c #FFF344",
"f@	c #CC9814",
"g@	c #BA7907",
"h@	c #FFEF41",
"i@	c #FFEC46",
"j@	c #EED034",
"k@	c #EAC317",
"l@	c #E4B80B",
"m@	c #E9D030",
"n@	c #FFF961",
"o@	c #FFDF36",
"p@	c #FFDE36",
"q@	c #FFDE38",
"r@	c #FFEA3D",
"s@	c #FFEC3E",
"t@	c #FFE53D",
"u@	c #FFDE39",
"v@	c #FFF645",
"w@	c #E3BE30",
"x@	c #D89A0A",
"y@	c #FFEC26",
"z@	c #FCD923",
"A@	c #F9D723",
"B@	c #E6BC0E",
"C@	c #EFD02C",
"D@	c #FFF94C",
"E@	c #ECD739",
"F@	c #C37902",
"G@	c #B57B0A",
"H@	c #F5E33E",
"I@	c #F5DB40",
"J@	c #DEB20B",
"K@	c #DFB911",
"L@	c #FAEC51",
"M@	c #FFE849",
"N@	c #FFE039",
"O@	c #FFDF37",
"P@	c #FFE037",
"Q@	c #FFDF39",
"R@	c #FFE239",
"S@	c #FFE33F",
"T@	c #FDED4E",
"U@	c #D69A17",
"V@	c #F3CB17",
"W@	c #FDDF26",
"X@	c #EEC514",
"Y@	c #E3BF16",
"Z@	c #FEE446",
"`@	c #CCA522",
" #	c #CF7A00",
".#	c #90640B",
"+#	c #C7C13D",
"@#	c #FFF93F",
"##	c #FEE64A",
"$#	c #D6AB10",
"%#	c #E9D02F",
"&#	c #FFEF50",
"*#	c #FFDC37",
"=#	c #FFDE37",
"-#	c #FFE038",
";#	c #FFE13B",
">#	c #FFF64B",
",#	c #E5BD38",
"'#	c #DE9F0B",
")#	c #FFE826",
"!#	c #F6D422",
"~#	c #F1CC19",
"{#	c #DFB203",
"]#	c #F2D93F",
"^#	c #EEDC49",
"/#	c #AE6B00",
"(#	c #E29809",
"_#	c #FFFF43",
":#	c #FFDE3E",
"<#	c #EFDC3E",
"[#	c #FBE140",
"}#	c #FFDC35",
"|#	c #FFDE35",
"1#	c #FFE03A",
"2#	c #FFE23B",
"3#	c #FEEF4C",
"4#	c #D79A1A",
"5#	c #EFC516",
"6#	c #F9DB25",
"7#	c #EEC717",
"8#	c #DCAC00",
"9#	c #EBD03A",
"0#	c #FFFA6F",
"a#	c #FFFF6B",
"b#	c #BA8919",
"c#	c #C27700",
"d#	c #C4890E",
"e#	c #EBE941",
"f#	c #FFEB37",
"g#	c #FFE640",
"h#	c #FFD731",
"i#	c #FFDB33",
"j#	c #FFDC34",
"k#	c #FFDD35",
"l#	c #FFDD37",
"m#	c #FFE03B",
"n#	c #FFF347",
"o#	c #E8C235",
"p#	c #D7970B",
"q#	c #F9DF23",
"r#	c #E7BA0D",
"s#	c #DAA900",
"t#	c #ECD142",
"u#	c #FFFB7F",
"v#	c #FFFF86",
"w#	c #C5A332",
"x#	c #9E6000",
"y#	c #EBA410",
"z#	c #64450A",
"A#	c #FFFF3F",
"B#	c #FFD82F",
"C#	c #FFDD34",
"D#	c #FFD833",
"E#	c #FFDB35",
"F#	c #FFE03C",
"G#	c #FFF74B",
"H#	c #DAA320",
"I#	c #DBA406",
"J#	c #E1B600",
"K#	c #DCB10B",
"L#	c #F2DB5E",
"M#	c #FFFF9B",
"N#	c #C5A841",
"O#	c #8F5900",
"P#	c #D49811",
"Q#	c #AF7C10",
"R#	c #A1A230",
"S#	c #FFFF3A",
"T#	c #FFD42F",
"U#	c #FFDC36",
"V#	c #FFDD38",
"W#	c #FFDF3A",
"X#	c #FFE942",
"Y#	c #F6DA3C",
"Z#	c #CD8F02",
"`#	c #DDB40B",
" $	c #E9C82E",
".$	c #FDEE6E",
"+$	c #FFFFA2",
"@$	c #FFFE9D",
"#$	c #C1A73C",
"$$	c #8D5D00",
"%$	c #BD8A14",
"&$	c #CB9416",
"*$	c #D4C23A",
"=$	c #FFFA37",
"-$	c #FFDB30",
";$	c #FFDF38",
">$	c #FFE13D",
",$	c #FFE742",
"'$	c #F6D635",
")$	c #EDCA2A",
"!$	c #FDEB51",
"~$	c #FFFF79",
"{$	c #FFFF85",
"]$	c #F1E36F",
"^$	c #BB9D28",
"/$	c #9B7300",
"($	c #C8A018",
"_$	c #D7A51B",
":$	c #F6CB34",
"<$	c #FFDE32",
"[$	c #FBDC30",
"}$	c #FFE836",
"|$	c #FFE539",
"1$	c #FFE13A",
"2$	c #FFE23D",
"3$	c #FFE43E",
"4$	c #FFE73F",
"5$	c #FFF247",
"6$	c #FFFF5B",
"7$	c #FFF75F",
"8$	c #F6E058",
"9$	c #DEC341",
"0$	c #BE9918",
"a$	c #BB9514",
"b$	c #EBC227",
"c$	c #D1A91C",
"d$	c #E7B32C",
"e$	c #F7C52E",
"f$	c #E0BB28",
"g$	c #F0CD2E",
"h$	c #FFE53A",
"i$	c #FFE83D",
"j$	c #FFE740",
"k$	c #FAE240",
"l$	c #ECD439",
"m$	c #E1C336",
"n$	c #D3B131",
"o$	c #C8A320",
"p$	c #CAA418",
"q$	c #EEC62C",
"r$	c #AE9021",
"s$	c #A98220",
"t$	c #E4AA27",
"u$	c #DEA520",
"v$	c #CF9E1D",
"w$	c #CBA11F",
"x$	c #CDA521",
"y$	c #CBA020",
"z$	c #C7981E",
"A$	c #B68510",
"B$	c #BB8B0F",
"C$	c #D8A91E",
"D$	c #FBCE2E",
"E$	c #FFE034",
"F$	c #D8B52C",
"G$	c #5A4B15",
"H$	c #9B771C",
"I$	c #C4921D",
"J$	c #DBA21E",
"K$	c #E3A91E",
"L$	c #E4AA1B",
"M$	c #ECB11A",
"N$	c #F1B81A",
"O$	c #E7B219",
"P$	c #D5A920",
"Q$	c #AB8D22",
"R$	c #5A4C15",
"S$	c #5D450E",
"T$	c #624B0E",
"U$	c #634B0C",
"V$	c #5D460C",
"                                                                ",
"                                                                ",
"                            . + @ # $ %                         ",
"                      & * = - ; > , ' ) ! ~ {                   ",
"                  ] ^ , / ( _ : < [ } | 1 2 3 4 5 6             ",
"                7 8 9 0 a b c d e f g h i j k l m n             ",
"              o p q r s t u v w x y z A B C D E F G H           ",
"            I J K L M N O P ) Q R S T U V W X Y Z `  .          ",
"          ..+.@.#.$.%.&.*.=.-.B ;.>.,.'.).!.~.~.{.].N ^.        ",
"        /.(._.:.<.[.}.|.1.2.3.4.5.6.7.8.!.9.0.a.b.c.d.`         ",
"      e.f.g.h.i.j.k.l.m.y B n.o.p.q.r.s.t.u.v.w.x.y.z.A.B.      ",
"      C.D.E.F.G.H.I.J.K.L.M.N.O.P.Q.R.S.T.U.V.W.X.Y.Z.`. +      ",
"      .+++@+#+$+%+&+*+=+-+;+>+,+'+)+!+f.~+{+]+^+/+(+_+:+<+[+    ",
"    }+|+1+2+3+4+5+6+7+8+9+0+a+b+c+d+e+f+g+h+i+j+k+l+m+:+n+o+    ",
"    p+q+r+s+t+u+v+w+x+y+z+A+B+C+D+E+F+G+H+I+J+K+L+M+N+O+P+Q+    ",
"    R+S+T+U+V+W+X+Y+Z+`+ @.@+@@@#@$@%@&@*@=@-@;@>@,@'@)@!@~@    ",
"    {@]@^@/@(@_@:@<@[@}@|@1@2@3@4@5@6@7@8@9@0@a@b@c@d@e@f@g@    ",
"    h@i@j@k@l@m@n@[@6@o@p@q@r@s@t@u@v@w@x@y@z@A@B@C@D@E@F@G@    ",
"    H@B+I@J@K@L@M@N@o@O@P@P@q@Q@R@S@T@U@V@W@A@X@Y@Z@8.`@ #.#    ",
"    +#@###$#%#&#*#=#p@o@-#}@6@;#q@>#,#'#)#!#~#{#]#f.^#/#(#      ",
"      _#:#<#[#q@}#}#|#p@=#-#1#;#2#3#4#5#6#7#8#9#0#a#b#c#d#      ",
"      e#f#g#6@h#i#j#k#l#q@Q@m#m#n#o#p#q#r#s#t#u#v#w#x#y#z#      ",
"        A#B#k#C#D#E#k#=#q@Q@;#F#G#H#I#J#K#L#M#M#N#O#P#Q#        ",
"        R#S#T#j#k#}#E#U#V#W#;#X#Y#Z#`# $.$+$@$#$$$%$&$          ",
"          *$=$-$j#k#p@=#;$;#>$,$'$)$!$~${$]$^$/$($_$            ",
"            :$<$[$}$|$R@1$2$3$4$5$6$7$8$9$0$a$b$c$              ",
"              d$e$f$g$k#h$i$j$k$l$m$n$o$p$q$E#r$                ",
"                s$t$u$v$w$x$y$z$A$B$C$D$E$F$G$                  ",
"                    H$I$J$K$L$M$N$O$P$Q$R$                      ",
"                          S$T$U$V$                              ",
"                                                                ",
"                                                                "};
