<?xml version="1.0" encoding="utf-8"?>
<!-- Generator: Adobe Illustrator 21.1.0, SVG Export Plug-In . SVG Version: 6.00 Build 0)  -->
<svg version="1.1" xmlns="http://www.w3.org/2000/svg" xmlns:xlink="http://www.w3.org/1999/xlink" x="0px" y="0px"
	 viewBox="0 0 512 512" style="enable-background:new 0 0 512 512;" xml:space="preserve">
<style type="text/css">
	.st0{enable-background:new    ;}
	.st1{fill-rule:evenodd;clip-rule:evenodd;fill:#EFA904;}
	.st2{fill-rule:evenodd;clip-rule:evenodd;fill:#D17E05;}
	.st3{fill-rule:evenodd;clip-rule:evenodd;fill:#F8E5BE;}
	.st4{fill-rule:evenodd;clip-rule:evenodd;fill:#DF9400;}
	.st5{fill-rule:evenodd;clip-rule:evenodd;fill:#C66903;}
	.st6{fill-rule:evenodd;clip-rule:evenodd;fill:#F2D69B;}
</style>
<g id="_x31_1_1_" class="st0">
	<g id="_x31_1">
		<g>
			<path class="st1" d="M256.7,41.4c-123.8,0-224.1,100.3-224.1,224.1s100.4,224.1,224.1,224.1s224.1-100.3,224.1-224.1
				S380.5,41.4,256.7,41.4z M256.7,451.3C154.1,451.3,71,368.1,71,265.5S154.1,79.8,256.7,79.8S442.5,163,442.5,265.5
				S359.3,451.3,256.7,451.3z"/>
		</g>
	</g>
</g>
<g id="_x31_0_1_" class="st0">
	<g id="_x31_0">
		<g>
			<path class="st1" d="M354.1,260.1c0,0,13.1-59.5-7.2-105.7c0,0,34.9-32,12.3-92c-2.8-7.5-6.5-13.9-13.8-18.8c0,0-2.6-1.9-7.2,0
				c0,0-4.2,5.6-3.6,15.9c0,0,2.5,26.1-18.1,67.3c0,0-9.1-7.1-17.4-10.9c0,0,11.2-15.4,7.2-29.7c0,0-7.2,11.8-20.3,15.9
				c0,0,3.1-16.7,0-24.6c0,0-6.3,19-33.3,31.1c0,0,1.8-18.3,0.7-24.6c0,0-5.8,16.3-27.5,26.8c0,0-23,10.5-29,15.2
				c0,0-14.7-21.5-17.4-52.9c0,0-0.4-15.2-1.4-21c0,0-1.6-10.3-7.2-10.1c0,0-16.5,4.2-23.2,36.2c0,0-6,35.5,6.5,58.7
				c0,0,7.8,12.9,13,17.4c0,0-20.8,29.1-12.3,92.7c0,0,3.8,23.4,5.1,63c0,0,1.1,60.8-2.2,86.2c0,0-1.6,21.7-5.8,31.9l33.3,28.2
				l57.2,7.2c0,0,69.7-6.5,72.4-6.5c2.7,0,44.9-23.2,44.9-23.2s-7.6-59.5-8-97C352,336.9,350.9,296.6,354.1,260.1z"/>
		</g>
	</g>
</g>
<g id="_x39__1_" class="st0">
	<g id="_x39_">
		<g>
			<path class="st2" d="M170.2,79.8c0,0,1.1-10.9,2.2-16.7c0,0,0.4-7.6-4.3-3.6c0,0-29.7,34,5.1,85.4c0,0,7.2-9.4,13.8-13
				C186.8,132,168,105.9,170.2,79.8z"/>
		</g>
	</g>
</g>
<g id="_x38__1_" class="st0">
	<g id="_x38_">
		<g>
			<path class="st2" d="M346,59.3c-4.7-4-4.3,3.6-4.3,3.6c1.1,5.8,0.7,16.7,0.7,16.7c2.2,26.2-16.5,52.3-16.5,52.3
				c6.5,3.6,13.7,13.1,13.7,13.1C374,93.4,346,59.3,346,59.3z"/>
		</g>
	</g>
</g>
<g id="_x37__1_" class="st0">
	<g id="_x37_">
		<g>
			<path class="st3" d="M264.3,284.7c0,0-5.7-2.2-5.8-9.4c0-6.7-1.5-12,9.4-21c10.9-9,4.7-18.1-0.7-18.8h-24.6
				c-5.4,0.8-11.7,9.9-0.7,18.8c10.9,9,9.5,14.3,9.4,21c-0.1,7.2-5.8,9.4-5.8,9.4c-11.2-0.4-23.9-11.6-23.9-11.6
				c6.2,19.6,26.8,20.3,26.8,20.3l6.5,5.8l6.5-5.8c0,0,20.6-0.7,26.8-20.3C288.2,273.2,275.6,284.4,264.3,284.7z"/>
		</g>
	</g>
</g>
<g id="_x36__1_" class="st0">
	<g id="_x36_">
		<g>
			<path class="st4" d="M189.7,53c0,0-9.4,2.2-10.9,3.6c0,0,0.7,24.2,5.8,37.7c0,0,5.6-2.4,10.1-3.6C194.8,90.7,188.6,70.3,189.7,53
				z"/>
		</g>
	</g>
</g>
<g id="_x35__1_" class="st0">
	<g id="_x35_">
		<g>
			<path class="st4" d="M374.4,75.5c-8-6.5-13.8-8-13.8-8c7,12.1,5.1,47.8,5.1,47.8l9.4,7.2C381.2,107.6,374.4,75.5,374.4,75.5z"/>
		</g>
	</g>
</g>
<g id="_x34__1_" class="st0">
	<g id="_x34_">
		<g>
			<path class="st5" d="M253.4,183.2c-8-0.5-23.3-3-23.3-3c-24.8-8.5-93.8-3-93.8-3c-3.3,0.3-3.8,3-3.8,3v9.7c7.8,3.3,9,10.5,9,10.5
				c0.5,7.5,3.8,24,3.8,24c4.5,17.2,22.5,18.7,22.5,18.7c11.8,1.8,38.3,0.8,38.3,0.8c19.3-1,27-9,27-9c7.5-6.2,11.3-30,11.3-30
				c1.3-12.5,10.5-9.7,10.5-9.7c0.3,0,0.5,0,0.8,0.1V183C254.2,183.1,253.4,183.2,253.4,183.2z"/>
		</g>
	</g>
</g>
<g id="_x33__1_" class="st0">
	<g id="_x33_">
		<g>
			<path class="st6" d="M236.7,191.2c0,0-0.7-10.5-60.8-11c0,0-20.3,0.5-24.9,6.6c0,0-6.1,11.8,0,33.1c0,0,2.7,16.3,19.8,17.6
				c0,0,39.8,3.7,52.8-2.2c0,0,9.3-3.9,11.7-16.9C235.3,218.4,241.1,197.1,236.7,191.2z"/>
		</g>
	</g>
</g>
<g id="_x32__1_" class="st0">
	<g id="_x32_">
		<g>
			<path class="st5" d="M375,177.1c0,0-69.1-5.5-93.8,3c0,0-15.3,2.5-23.3,3c0,0-0.8,0-2.3-0.2v12.2c0.2,0,0.5-0.1,0.8-0.1
				c0,0,9.3-2.8,10.5,9.8c0,0,3.8,23.8,11.3,30c0,0,7.8,8,27,9c0,0,26.5,1,38.3-0.8c0,0,18-1.5,22.5-18.8c0,0,3.3-16.5,3.8-24
				c0,0,1.3-7.3,9-10.5v-9.8C378.7,180.1,378.2,177.4,375,177.1z"/>
		</g>
	</g>
</g>
<g id="_x31__1_" class="st0">
	<g id="_x31_">
		<g>
			<path class="st6" d="M360.3,186.8c-4.6-6.1-24.9-6.6-24.9-6.6c-60.1,0.5-60.8,11-60.8,11c-4.4,5.9,1.5,27.2,1.5,27.2
				c2.4,13,11.7,16.9,11.7,16.9c12.9,5.9,52.8,2.2,52.8,2.2c17.1-1.3,19.8-17.7,19.8-17.7C366.4,198.5,360.3,186.8,360.3,186.8z"/>
		</g>
	</g>
</g>
</svg>
